<?xml version="1.0" encoding="UTF-8"?>
<svg id="Layer_1" data-name="Layer 1" xmlns="http://www.w3.org/2000/svg" version="1.1" viewBox="0 0 832.55 324.82">
  <defs>
    <style>
      .cls-1 {
        fill: #d7153a;
      }

      .cls-1, .cls-2, .cls-3 {
        stroke-width: 0px;
      }

      .cls-2 {
        fill: #0d1918;
      }

      .cls-3 {
        fill: #15397f;
      }
    </style>
  </defs>
  <g>
    <g>
      <path class="cls-1" d="M141.58,168.87c-22.86-2.81-45.08,4.53-84.16-6.11-3.99-1.09-5.46,3.13-3.3,6.66,10.5,17.17,63.54,3.72,87.57,1.24,1.05-.11.94-1.65-.11-1.78Z"/>
      <path class="cls-1" d="M241.66,162.77c-39.08,10.64-61.29,3.29-84.16,6.11-1.05.13-1.16,1.68-.11,1.78,24.03,2.48,77.07,15.94,87.57-1.24,2.16-3.53.69-7.74-3.3-6.66Z"/>
      <path class="cls-1" d="M69.32,138.2c-7.95-11.67-14.44-24.72-19.47-39.08-15.17,4.44-30.69,10.84-46.49,19.22C1.32,119.42.06,121.45,0,123.75c-.06,2.31,1.09,4.4,3.07,5.58,30.6,18.33,60.52,28.82,89.07,31.25-8.5-5.19-16.3-12.81-22.82-22.38Z"/>
      <path class="cls-1" d="M26.69,99.2c7-2.8,13.94-5.21,20.81-7.23-2.46-8-4.48-16.38-6.07-25.13-7.9-.99-16.08-1.62-24.54-1.91-.07,0-.15,0-.22,0-2.22,0-4.22,1.12-5.38,3.02-1.2,1.96-1.25,4.34-.14,6.36,4.91,8.88,10.1,17.18,15.55,24.89Z"/>
      <path class="cls-1" d="M101.88,157.27c4.74,2.1,9.6,3.27,14.31,3.52-11.52-8.26-20.58-22.27-25.79-40.11-6.72-22.98-8.97-48.33-6.75-75.69-9.07-5.73-18.89-11.09-29.48-16.07-2.04-.96-4.38-.77-6.26.5-1.87,1.27-2.9,3.37-2.76,5.62,2.46,39.69,12.68,72.98,30.36,98.95,7.42,10.89,16.54,18.94,26.37,23.29Z"/>
      <path class="cls-1" d="M124.44,27.35c-5.42-6.59-11.31-13.1-17.66-19.54-1.23-1.25-2.82-1.91-4.46-1.91-.59,0-1.18.08-1.76.26-2.22.66-3.84,2.44-4.32,4.77-1.24,5.99-3.6,18.2-4.65,30.28,8.12,5.35,15.62,11.01,22.49,16.96,2.67-10.15,6.13-20.45,10.36-30.82Z"/>
      <path class="cls-1" d="M295.72,118.34c-15.8-8.38-31.33-14.79-46.49-19.22-5.03,14.36-11.52,27.41-19.47,39.08-6.52,9.57-14.31,17.19-22.82,22.38,28.55-2.43,58.47-12.91,89.07-31.25,1.98-1.19,3.13-3.28,3.07-5.58-.06-2.31-1.32-4.33-3.36-5.42Z"/>
      <path class="cls-1" d="M272.39,99.2c5.45-7.71,10.63-16,15.55-24.89,1.12-2.02,1.06-4.4-.14-6.36-1.16-1.9-3.16-3.02-5.38-3.02-.07,0-.15,0-.22,0-8.46.28-16.64.92-24.54,1.91-1.59,8.74-3.62,17.13-6.07,25.13,6.87,2.02,13.81,4.43,20.81,7.23Z"/>
      <path class="cls-1" d="M208.68,120.68c-5.22,17.85-14.27,31.86-25.79,40.11,4.71-.25,9.57-1.42,14.31-3.52,9.84-4.34,18.95-12.4,26.37-23.29,17.68-25.97,27.9-59.26,30.36-98.95.14-2.25-.89-4.35-2.76-5.62-1.87-1.27-4.21-1.46-6.26-.5-10.58,4.98-20.41,10.34-29.48,16.07,2.22,27.35-.03,52.71-6.75,75.69Z"/>
      <path class="cls-1" d="M207.49,41.21c-1.04-12.07-3.4-24.28-4.65-30.28-.48-2.33-2.1-4.12-4.32-4.77-.59-.17-1.18-.26-1.76-.26-1.64,0-3.23.66-4.46,1.91-6.35,6.44-12.24,12.95-17.66,19.54,4.23,10.37,7.69,20.67,10.36,30.82,6.87-5.95,14.37-11.61,22.49-16.96Z"/>
      <path class="cls-1" d="M149.52,101.19c7.69-15.19,19.97-28.8,29.19-37.4-5.06-20.62-12.86-40.08-23.62-60.44-1.11-2.1-3.2-3.35-5.57-3.35s-4.45,1.25-5.57,3.35c-10.87,20.42-18.8,40.75-23.59,60.43,9.63,8.92,22.33,23.46,29.16,37.41Z"/>
      <path class="cls-1" d="M177.77,155.09c7.97-5.61,15.94-15.38,21-28.97,9.79-26.31,10.81-55.62,9.4-76.36-17.75,11.85-45.92,36.6-55.54,63.06-4.53,12.45-6.64,29.41-3.15,38.87,1.46,3.95,3.94,6.95,7.34,8.38,5.16,2.17,13.09.53,20.94-4.99Z"/>
      <path class="cls-1" d="M145.54,110.51c-2.35-5.48-4.93-10.65-8.95-16.46-11.35-16.43-26.66-31.25-45.7-44.3-.2,3.08-2.98,36.31,6.77,68.8,7.42,24.71,20.09,34.78,27.04,38.67,6.99,3.91,13.38,4.83,20.89,2.97-7.6-10.36-6.66-31.63-.05-49.67Z"/>
    </g>
    <g>
      <polygon class="cls-3" points="30.02 222.46 72.76 284.31 90.15 284.31 90.15 191.82 70.7 191.82 70.7 251.31 29.81 192.03 29.67 191.82 10.64 191.82 10.64 284.31 30.02 284.31 30.02 222.46"/>
      <path class="cls-3" d="M169.84,242.73c-1.72-2.78-4.3-5.3-7.69-7.5-3.38-2.2-7.98-3.88-13.67-4.99l-15.84-3.26c-4.78-1.03-8.08-2.37-9.8-3.97-1.68-1.56-2.53-3.63-2.53-6.16,0-1.61.37-3.08,1.09-4.36.72-1.29,1.77-2.43,3.11-3.39,1.35-.96,3.03-1.72,4.99-2.26,1.98-.54,4.21-.82,6.61-.82,3.17,0,6.03.42,8.5,1.25,2.44.83,4.47,2.18,6.01,4.04,1.55,1.85,2.5,4.38,2.82,7.5l.05.43h19.65v-.49c-.1-5.31-1.6-10.18-4.46-14.47-2.87-4.3-7.11-7.75-12.6-10.27-5.47-2.51-12.3-3.78-20.29-3.78-6.72,0-12.87,1.17-18.3,3.49-5.44,2.32-9.81,5.67-12.98,9.96-3.18,4.31-4.77,9.47-4.72,15.34.13,7.16,2.3,12.98,6.46,17.29,4.14,4.29,9.81,7.14,16.86,8.48l15.97,3.26c2.93.58,5.59,1.35,7.9,2.27,2.27.91,4.08,2.09,5.38,3.52,1.27,1.39,1.92,3.21,1.92,5.42,0,2.45-.8,4.52-2.38,6.15-1.62,1.66-3.82,2.92-6.54,3.74-2.77.84-5.86,1.26-9.19,1.26s-6.24-.51-8.9-1.51c-2.64-.99-4.85-2.43-6.59-4.28-1.72-1.85-2.91-4.16-3.52-6.87l-.09-.38h-20.03l.05.53c.47,4.69,1.93,8.85,4.33,12.37,2.39,3.49,5.46,6.43,9.12,8.76,3.64,2.31,7.73,4.08,12.15,5.24,4.41,1.15,8.97,1.74,13.54,1.74,7.48,0,14.13-1.18,19.74-3.52,5.63-2.35,10.09-5.58,13.25-9.6,3.19-4.05,4.8-8.68,4.8-13.74,0-2.4-.27-5.06-.81-7.92-.54-2.88-1.68-5.74-3.39-8.5Z"/>
      <polygon class="cls-3" points="274.34 191.82 257.68 250.97 240.84 191.82 226.75 191.82 210.09 250.96 193.44 191.82 174.32 191.82 201.57 284.31 216.79 284.31 233.76 225.76 250.61 284.31 266.09 284.31 293.4 191.82 274.34 191.82"/>
      <path class="cls-3" d="M22.2,313.46h5.83l-.16,1.19c-.06.46-.21.93-.46,1.4-.24.47-.59.92-1.02,1.34-.43.41-.96.75-1.56,1.01-.6.25-1.3.38-2.07.38-.84,0-1.65-.14-2.42-.43-.76-.27-1.45-.74-2.05-1.41-.61-.68-1.11-1.61-1.47-2.79-.37-1.19-.56-2.72-.56-4.55,0-2.25.28-4.07.85-5.43.55-1.33,1.31-2.3,2.24-2.89.94-.6,2.01-.9,3.17-.9.96,0,1.81.21,2.52.62.72.41,1.32.97,1.78,1.66.47.7.79,1.47.94,2.3l.07.4h6.99l-.02-.51c-.06-1.34-.4-2.63-1.01-3.85-.61-1.22-1.46-2.34-2.54-3.31-1.06-.96-2.33-1.74-3.79-2.3-1.44-.56-3.06-.84-4.81-.84-2.7,0-5.11.63-7.16,1.86-2.05,1.24-3.66,3.03-4.79,5.3-1.13,2.26-1.7,4.97-1.7,8.06s.54,5.71,1.62,7.95c1.08,2.26,2.64,4.03,4.64,5.27,2,1.23,4.37,1.86,7.07,1.86,1.59,0,2.96-.22,4.07-.65,1.09-.42,2.04-.98,2.82-1.67.36-.32.69-.64.99-.97v2.89h4.9v-15.86l-12.91-.06v4.96Z"/>
      <path class="cls-3" d="M59.35,296.38c-2.02-1.22-4.43-1.84-7.16-1.84s-5.16.62-7.2,1.85c-2.04,1.24-3.65,3.01-4.77,5.28-1.11,2.25-1.68,4.96-1.68,8.07s.56,5.78,1.65,8.02c1.12,2.26,2.71,4.02,4.75,5.23,2.03,1.22,4.46,1.84,7.24,1.84s5.17-.62,7.19-1.84c2.03-1.22,3.62-2.98,4.71-5.24,1.09-2.24,1.64-4.93,1.64-8.01s-.56-5.83-1.65-8.08c-1.11-2.27-2.7-4.05-4.74-5.28ZM55.55,318.2c-.93.61-2.06.92-3.36.92s-2.41-.31-3.35-.92c-.94-.6-1.68-1.58-2.2-2.92-.54-1.37-.81-3.21-.81-5.47s.27-4.17.82-5.59c.52-1.38,1.27-2.4,2.21-3.03.94-.63,2.07-.95,3.34-.95s2.39.32,3.33.95c.93.63,1.67,1.65,2.18,3.02.53,1.41.81,3.29.81,5.6s-.27,4.09-.79,5.46c-.51,1.33-1.24,2.32-2.17,2.92Z"/>
      <polygon class="cls-3" points="79.71 315.71 72.57 295.03 66.09 295.03 76.11 324.32 83.28 324.32 93.39 295.03 86.9 295.03 79.71 315.71"/>
      <polygon class="cls-3" points="102.88 312.44 114.8 312.44 114.8 306.73 102.91 306.73 102.91 300.82 116.61 300.82 116.63 295.03 96.21 295.03 96.21 324.32 116.82 324.32 116.82 318.49 102.88 318.48 102.88 312.44"/>
      <path class="cls-3" d="M140.83,310.66c.79-.71,1.44-1.63,1.94-2.72.49-1.08.74-2.41.74-3.97,0-1.73-.36-3.29-1.08-4.62-.72-1.35-1.85-2.43-3.38-3.2-1.5-.75-3.44-1.13-5.76-1.13h-12.43v29.28h6.67v-10.91h4.91l4.62,10.91h7l-5.38-12.13c.77-.42,1.5-.93,2.15-1.53ZM136.77,304.12c0,1.16-.39,2.08-1.19,2.82-.8.73-1.91,1.1-3.31,1.1h-4.74v-7.67h5.16c1.2,0,2.17.33,2.95,1.01.76.67,1.13,1.57,1.13,2.73Z"/>
      <polygon class="cls-3" points="166.51 312.7 154.32 295.03 147.92 295.03 147.92 324.32 154.59 324.32 154.59 305.93 167.3 324.32 173.19 324.32 173.19 295.03 166.51 295.03 166.51 312.7"/>
      <polygon class="cls-3" points="193.62 314.13 187.49 295.03 178.35 295.03 178.35 324.32 185.08 324.32 185.08 305.45 191.01 324.32 196.2 324.32 202.18 305.35 202.18 324.32 208.92 324.32 208.92 295.03 199.8 295.03 193.62 314.13"/>
      <polygon class="cls-3" points="220.75 312.44 232.67 312.44 232.67 306.73 220.79 306.73 220.79 300.82 234.47 300.82 234.49 295.03 214.08 295.03 214.08 324.32 234.69 324.32 234.69 318.49 220.75 318.48 220.75 312.44"/>
      <polygon class="cls-3" points="257.55 312.7 245.36 295.03 238.97 295.03 238.97 324.32 245.63 324.32 245.63 305.93 258.34 324.32 264.23 324.32 264.23 295.03 257.55 295.03 257.55 312.7"/>
      <polygon class="cls-3" points="267.04 301.1 275.6 301.1 275.6 324.32 282.3 324.32 282.3 301.1 290.66 301.1 290.66 295.03 267.04 295.03 267.04 301.1"/>
    </g>
  </g>
  <g>
    <path class="cls-2" d="M456.67,91.95h43.99v8.54h-16.93v47.85h-9.52v-47.85h-17.55v-8.54Z"/>
    <path class="cls-2" d="M505.46,108.02h9.09v8.74c.96-2.99,2.55-5.32,4.76-7,2.21-1.68,4.76-2.52,7.64-2.52,1.09,0,1.87.12,2.34.35v9.09c-.29-.1-.65-.19-1.09-.25-.44-.06-.85-.1-1.21-.1-.88-.05-1.51-.08-1.87-.08-3.28,0-5.79.75-7.55,2.26-1.75,1.51-2.63,3.64-2.63,6.4v23.44h-9.48v-40.33Z"/>
    <path class="cls-2" d="M540.03,147.7c-2.04-.95-3.63-2.33-4.78-4.13-1.14-1.81-1.72-3.96-1.72-6.46,0-4.5,1.62-7.86,4.88-10.1,3.25-2.24,8.35-3.41,15.29-3.51l6.04-.16v-2.73c0-2.16-.64-3.83-1.91-5.01-1.27-1.18-3.18-1.77-5.73-1.77-2.16,0-4.02.48-5.6,1.44-1.57.96-2.61,2.44-3.1,4.45h-8.07c.21-4.06,1.83-7.15,4.88-9.28,3.04-2.13,7.11-3.2,12.21-3.2,10.97,0,16.46,4.28,16.46,12.83v28.27h-8l-.78-7.25c-1.4,2.89-3.19,4.95-5.34,6.18s-4.75,1.85-7.76,1.85c-2.6,0-4.92-.47-6.96-1.42ZM544.68,140.94c1.39,1.17,3.19,1.75,5.4,1.75,1.53,0,3.05-.37,4.54-1.11,1.49-.74,2.72-1.71,3.68-2.91.96-1.2,1.44-2.43,1.44-3.71v-6.36l-4.95.08c-8.14.08-12.21,2.56-12.21,7.45,0,2.03.7,3.63,2.09,4.8Z"/>
    <path class="cls-2" d="M578.62,108.02h9.28v5.77c1.07-1.79,2.61-3.28,4.64-4.47,2.03-1.18,4.52-1.77,7.49-1.77,2.6,0,4.97.51,7.1,1.52s3.83,2.59,5.11,4.74c1.27,2.15,1.91,4.82,1.91,8.01v26.52h-9.52v-25.39c0-2.55-.71-4.49-2.12-5.83-1.42-1.34-3.27-2.01-5.56-2.01-1.56,0-3.02.26-4.37.78-1.35.52-2.44,1.3-3.26,2.34-.82,1.04-1.23,2.3-1.23,3.78v26.33h-9.48v-40.33Z"/>
    <path class="cls-2" d="M630.85,147.72c-2.5-.94-4.58-2.38-6.26-4.33-1.68-1.95-2.72-4.38-3.14-7.29h8.35c.49,2.11,1.59,3.69,3.28,4.74,1.69,1.05,3.64,1.58,5.85,1.58,2.5,0,4.47-.43,5.91-1.29,1.44-.86,2.17-2.13,2.17-3.82,0-1.27-.42-2.29-1.25-3.04-.83-.75-2.16-1.33-3.98-1.72l-7.64-1.75c-3.64-.81-6.44-2.11-8.4-3.9-1.96-1.79-2.95-4.22-2.95-7.29,0-2.42.62-4.56,1.85-6.42,1.24-1.86,3.07-3.31,5.5-4.37,2.43-1.05,5.38-1.58,8.83-1.58,3.15,0,5.89.47,8.23,1.4s4.16,2.31,5.46,4.13c1.3,1.82,1.98,4,2.03,6.55h-8.07c-.29-1.74-1.11-3.1-2.46-4.08-1.35-.98-3.11-1.46-5.26-1.46-2.31,0-4.17.45-5.56,1.35-1.39.9-2.09,2.19-2.09,3.88,0,1.2.53,2.15,1.58,2.87,1.05.72,2.71,1.32,4.97,1.81l7.25,1.75c3.72.94,6.35,2.46,7.9,4.58s2.32,4.36,2.32,6.73c0,2.57-.66,4.79-1.99,6.65-1.33,1.86-3.22,3.28-5.67,4.25-2.46.98-5.34,1.46-8.64,1.46-2.91,0-5.62-.47-8.11-1.4Z"/>
    <path class="cls-2" d="M663.53,108.02h9.48l.08,6.36c1.22-2,2.93-3.69,5.13-5.07,2.2-1.38,4.76-2.07,7.7-2.07,3.17,0,5.95.75,8.33,2.24s4.24,3.78,5.58,6.84c1.34,3.07,2.01,6.88,2.01,11.43s-.69,8.58-2.07,11.78c-1.38,3.2-3.33,5.6-5.85,7.2-2.52,1.6-5.47,2.4-8.85,2.4-2.83,0-5.27-.71-7.29-2.13-2.03-1.42-3.6-3.18-4.72-5.28v19.19h-9.52v-52.88ZM674.1,135.05c.75,2.13,1.88,3.83,3.39,5.09,1.51,1.26,3.33,1.89,5.46,1.89,1.95,0,3.67-.51,5.15-1.52,1.48-1.01,2.65-2.58,3.49-4.7s1.27-4.75,1.27-7.9c0-2.78-.4-5.2-1.19-7.25-.79-2.05-1.93-3.63-3.41-4.72-1.48-1.09-3.25-1.64-5.3-1.64-3.22,0-5.69,1.24-7.41,3.72-1.72,2.48-2.57,5.78-2.57,9.89,0,2.63.38,5,1.13,7.14Z"/>
    <path class="cls-2" d="M716.94,146.65c-2.87-1.65-5.09-4.04-6.65-7.16-1.56-3.12-2.34-6.83-2.34-11.12s.76-7.91,2.28-11.1c1.52-3.18,3.72-5.65,6.61-7.41,2.89-1.75,6.29-2.63,10.22-2.63s7.16.85,10,2.54c2.85,1.69,5.04,4.12,6.59,7.29,1.55,3.17,2.32,6.94,2.32,11.31,0,4.11-.74,7.72-2.22,10.84s-3.65,5.55-6.49,7.29c-2.85,1.74-6.26,2.61-10.24,2.61s-7.21-.83-10.08-2.48ZM719.67,138.03c1.57,2.59,4.04,3.88,7.39,3.88,3.15,0,5.54-1.26,7.18-3.78,1.64-2.52,2.46-5.86,2.46-10.02s-.77-7.36-2.32-9.91c-1.55-2.55-3.98-3.82-7.31-3.82s-5.65,1.24-7.29,3.71c-1.64,2.47-2.46,5.81-2.46,10.02s.79,7.34,2.36,9.93Z"/>
    <path class="cls-2" d="M754.24,108.02h9.09v8.74c.96-2.99,2.55-5.32,4.76-7,2.21-1.68,4.76-2.52,7.64-2.52,1.09,0,1.87.12,2.34.35v9.09c-.29-.1-.65-.19-1.09-.25-.44-.06-.85-.1-1.21-.1-.88-.05-1.51-.08-1.87-.08-3.28,0-5.79.75-7.55,2.26-1.75,1.51-2.63,3.64-2.63,6.4v23.44h-9.48v-40.33Z"/>
    <path class="cls-2" d="M798.12,114.73l.04,23.13c0,1.2.13,2.07.39,2.63.26.56.68.92,1.25,1.09.57.17,1.42.25,2.54.25h4.99v6.01c-1.46.57-3.65.86-6.59.86-3.09,0-5.53-.41-7.29-1.23-1.77-.82-3.01-2-3.72-3.53-.72-1.53-1.07-3.44-1.07-5.73v-23.48h-6.55v-6.71h6.83l2.38-11.97h6.83v11.93h9.01v6.75h-9.01Z"/>
    <path class="cls-2" d="M470.85,229.3c-3.81-2.29-6.74-5.6-8.79-9.94s-3.08-9.5-3.08-15.48,1.04-11.19,3.12-15.56c2.08-4.37,5.02-7.72,8.83-10.04,3.81-2.33,8.27-3.49,13.4-3.49s9.54,1.16,13.32,3.47c3.78,2.31,6.69,5.66,8.74,10.04,2.04,4.38,3.06,9.57,3.06,15.58s-1.01,11.1-3.04,15.44c-2.03,4.34-4.93,7.66-8.7,9.96-3.77,2.3-8.23,3.45-13.38,3.45s-9.67-1.14-13.47-3.43ZM473.29,219.68c2.6,3.39,6.28,5.09,11.04,5.09s8.41-1.69,10.96-5.07c2.55-3.38,3.82-8.62,3.82-15.72s-1.28-12.54-3.84-16.03c-2.56-3.48-6.21-5.23-10.94-5.23s-8.4,1.75-11.02,5.25c-2.61,3.5-3.92,8.83-3.92,16.01s1.3,12.3,3.9,15.7Z"/>
    <path class="cls-2" d="M517.59,191.62h9.48l.08,6.36c1.22-2,2.93-3.69,5.13-5.07,2.2-1.38,4.76-2.07,7.7-2.07,3.17,0,5.95.75,8.33,2.24s4.24,3.78,5.58,6.84c1.34,3.07,2.01,6.88,2.01,11.43s-.69,8.58-2.07,11.78c-1.38,3.2-3.33,5.6-5.85,7.2-2.52,1.6-5.47,2.4-8.85,2.4-2.83,0-5.27-.71-7.29-2.13-2.03-1.42-3.6-3.18-4.72-5.28v19.19h-9.52v-52.88ZM528.16,218.65c.75,2.13,1.88,3.83,3.39,5.09,1.51,1.26,3.33,1.89,5.46,1.89,1.95,0,3.67-.51,5.15-1.52,1.48-1.01,2.65-2.58,3.49-4.7s1.27-4.75,1.27-7.9c0-2.78-.4-5.2-1.19-7.25-.79-2.05-1.93-3.63-3.41-4.72-1.48-1.09-3.25-1.64-5.3-1.64-3.22,0-5.69,1.24-7.41,3.72-1.72,2.48-2.57,5.78-2.57,9.89,0,2.63.38,5,1.13,7.14Z"/>
    <path class="cls-2" d="M572.95,220.09c.77,1.77,1.9,3.15,3.39,4.13s3.31,1.48,5.44,1.48c2.31,0,4.28-.51,5.91-1.54,1.62-1.03,2.7-2.54,3.22-4.54h8.66c-.44,2.71-1.53,5.04-3.28,7.02s-3.87,3.48-6.38,4.52c-2.51,1.04-5.16,1.56-7.94,1.56-3.87,0-7.29-.83-10.26-2.5s-5.27-4.04-6.9-7.14c-1.64-3.09-2.46-6.72-2.46-10.88s.75-7.82,2.26-11.06c1.51-3.24,3.7-5.77,6.57-7.59,2.87-1.82,6.29-2.73,10.24-2.73s7.22.83,9.96,2.5c2.74,1.67,4.82,4.02,6.22,7.06,1.4,3.04,2.11,6.6,2.11,10.69v2.89h-27.88c-.03,2.31.34,4.35,1.11,6.12ZM590.75,208.08c0-2-.35-3.79-1.05-5.36s-1.75-2.81-3.16-3.71c-1.4-.9-3.12-1.35-5.15-1.35s-3.73.49-5.19,1.48-2.55,2.28-3.29,3.86c-.74,1.59-1.11,3.28-1.11,5.07h18.95Z"/>
    <path class="cls-2" d="M608.38,191.62h9.28v5.77c1.07-1.79,2.61-3.28,4.64-4.47,2.03-1.18,4.52-1.77,7.49-1.77,2.6,0,4.97.51,7.1,1.52,2.13,1.01,3.83,2.59,5.11,4.74,1.27,2.14,1.91,4.82,1.91,8.01v26.52h-9.52v-25.39c0-2.55-.71-4.49-2.12-5.83-1.42-1.34-3.27-2.01-5.56-2.01-1.56,0-3.02.26-4.37.78-1.35.52-2.44,1.3-3.26,2.34-.82,1.04-1.23,2.3-1.23,3.78v26.33h-9.48v-40.33Z"/>
    <path class="cls-2" d="M688.1,175.63c10.06.18,17.45,2.64,22.17,7.37,4.72,4.73,7.08,11.54,7.08,20.44s-2.47,16.26-7.41,21.16c-4.94,4.9-12.42,7.35-22.42,7.35h-14.59v-56.39c6.89,0,11.95.03,15.17.08ZM687.67,224.11c6.16,0,10.99-1.64,14.49-4.91,3.5-3.28,5.25-8.51,5.25-15.72s-1.66-12.19-4.99-15.35-8.16-4.74-14.51-4.74h-5.34v40.72h5.11Z"/>
    <path class="cls-2" d="M731.01,231.3c-2.04-.95-3.63-2.33-4.78-4.13-1.14-1.81-1.72-3.96-1.72-6.46,0-4.5,1.62-7.86,4.88-10.1,3.25-2.24,8.35-3.41,15.29-3.51l6.04-.16v-2.73c0-2.16-.64-3.83-1.91-5.01-1.27-1.18-3.18-1.77-5.73-1.77-2.16,0-4.02.48-5.6,1.44-1.57.96-2.61,2.44-3.1,4.45h-8.07c.21-4.06,1.83-7.15,4.88-9.28,3.04-2.13,7.11-3.2,12.21-3.2,10.97,0,16.46,4.28,16.46,12.83v28.28h-8l-.78-7.25c-1.4,2.89-3.19,4.95-5.34,6.18s-4.75,1.85-7.76,1.85c-2.6,0-4.92-.47-6.96-1.42ZM735.66,224.54c1.39,1.17,3.19,1.75,5.4,1.75,1.53,0,3.05-.37,4.54-1.11,1.49-.74,2.72-1.71,3.68-2.91.96-1.2,1.44-2.43,1.44-3.71v-6.36l-4.95.08c-8.14.08-12.21,2.56-12.21,7.45,0,2.03.7,3.63,2.09,4.8Z"/>
    <path class="cls-2" d="M781.66,198.33l.04,23.13c0,1.2.13,2.07.39,2.63.26.56.68.92,1.25,1.09.57.17,1.42.25,2.54.25h4.99v6.01c-1.46.57-3.65.86-6.59.86-3.09,0-5.53-.41-7.29-1.23-1.77-.82-3.01-2-3.72-3.53-.72-1.53-1.07-3.44-1.07-5.73v-23.48h-6.55v-6.71h6.83l2.38-11.97h6.83v11.93h9.01v6.75h-9.01Z"/>
    <path class="cls-2" d="M803.71,231.3c-2.04-.95-3.63-2.33-4.78-4.13-1.14-1.81-1.72-3.96-1.72-6.46,0-4.5,1.62-7.86,4.88-10.1,3.25-2.24,8.35-3.41,15.29-3.51l6.04-.16v-2.73c0-2.16-.64-3.83-1.91-5.01-1.27-1.18-3.18-1.77-5.73-1.77-2.16,0-4.02.48-5.6,1.44-1.57.96-2.61,2.44-3.1,4.45h-8.07c.21-4.06,1.83-7.15,4.88-9.28,3.04-2.13,7.11-3.2,12.21-3.2,10.97,0,16.46,4.28,16.46,12.83v28.28h-8l-.78-7.25c-1.4,2.89-3.19,4.95-5.34,6.18s-4.75,1.85-7.76,1.85c-2.6,0-4.92-.47-6.96-1.42ZM808.35,224.54c1.39,1.17,3.19,1.75,5.4,1.75,1.53,0,3.05-.37,4.54-1.11,1.49-.74,2.72-1.71,3.68-2.91.96-1.2,1.44-2.43,1.44-3.71v-6.36l-4.95.08c-8.14.08-12.21,2.56-12.21,7.45,0,2.03.7,3.63,2.09,4.8Z"/>
  </g>
</svg>